<svg width="40" height="40" viewBox="0 0 40 40" fill="none" xmlns="http://www.w3.org/2000/svg">
<path d="M11.02 8.99609C13.6304 8.16747 17.672 7.72293 21.6489 7.87109C25.6276 8.01936 29.5299 8.76055 31.8677 10.2939C33.4377 11.3238 34.0736 12.4573 33.9634 13.5537C33.8526 14.6539 32.9888 15.7395 31.5083 16.667L31.439 16.7109L31.5093 16.7529C33.1143 17.7167 33.9262 18.8967 33.937 20.0596C33.9477 21.2216 33.1588 22.39 31.5103 23.3311L31.4341 23.374L31.5103 23.418C33.1038 24.3238 33.9213 25.4318 33.9595 26.5469C33.9975 27.6613 33.2575 28.8065 31.6792 29.7891C30.4252 30.5698 28.5296 31.1794 26.3198 31.584C24.111 31.9884 21.5923 32.1879 19.0962 32.1523C16.6 32.1168 14.1274 31.8459 12.0103 31.3105C9.89196 30.7749 8.13527 29.9756 7.06396 28.8877L7.04932 28.873H7.04834C6.02878 27.8302 5.84165 26.7699 6.17627 25.8232C6.51414 24.8675 7.38747 24.0176 8.50244 23.418L8.58252 23.375L8.50244 23.3301C6.85111 22.4178 6.06002 21.2321 6.0708 20.0537C6.08164 18.8745 6.8955 17.6804 8.50342 16.7529L8.57373 16.7129L8.50635 16.668C7.27285 15.8552 6.55565 15.053 6.23486 14.29C5.91506 13.5294 5.98716 12.803 6.34131 12.1328C6.69645 11.4608 7.33582 10.8435 8.15381 10.3105C8.97133 9.77792 9.96393 9.33064 11.019 8.99609H11.02ZM9.90771 23.8779C9.82365 23.8809 9.69846 23.925 9.56104 23.9863C9.42118 24.0488 9.26007 24.1326 9.1001 24.2227C8.78017 24.4028 8.46031 24.6098 8.31396 24.7188C7.20434 25.5444 6.8322 26.3049 7.02295 27.0254C7.11739 27.3821 7.34848 27.7211 7.68213 28.0469C8.01598 28.3728 8.45513 28.6877 8.97021 28.9951C11.3069 30.3907 14.918 31.0583 18.5757 31.1807C22.0058 31.2954 25.4853 30.9315 28.0073 30.2324L28.4985 30.0879C29.4804 29.7829 31.0224 29.1713 32.0171 28.3281C32.5142 27.9067 32.8811 27.4221 32.9663 26.8828C33.0519 26.3403 32.8508 25.7552 32.2397 25.1406C32.0528 24.9529 31.6908 24.6823 31.3149 24.4521C31.1267 24.3369 30.9335 24.2313 30.7554 24.1504C30.5781 24.0698 30.4118 24.0116 30.2788 23.9961C30.0595 23.9704 29.7002 24.0183 29.2729 24.1035C28.8429 24.1893 28.3362 24.3153 27.8198 24.4492C26.7845 24.7177 25.7113 25.0189 25.1147 25.1084C21.3254 25.6805 17.3617 25.5992 13.5933 24.8877C13.1918 24.8118 12.3938 24.557 11.6323 24.3213C11.2527 24.2038 10.8828 24.0908 10.5786 24.0088C10.4265 23.9678 10.2896 23.9349 10.1763 23.9121C10.1196 23.9007 10.0678 23.8905 10.022 23.8848L10.0347 23.873L9.90771 23.8779ZM28.4946 23.2314C22.9572 21.8152 17.0125 21.6436 11.5151 23.3252L11.3521 23.375L11.5161 23.4209C16.2077 24.7433 21.2505 24.7544 26.0552 24.0322V24.0332L26.062 24.0312L28.4976 23.3281L28.4868 23.2568L28.4946 23.2314ZM30.0747 17.3311C25.4387 18.8704 20.3145 19.229 15.4653 18.6328C13.531 18.3947 11.6753 17.8007 9.78174 17.3555L9.72021 17.3408V17.3721C7.90707 18.0923 6.99482 19.1134 7.0249 20.1309C7.05534 21.1539 8.037 22.1287 9.90674 22.748L9.92236 22.7529L9.93799 22.748C14.9851 21.1261 20.6131 20.7592 25.8433 21.6729C26.3305 21.7578 27.2827 22.0425 28.1938 22.2998C28.6483 22.4281 29.0921 22.5493 29.4595 22.6348C29.6432 22.6775 29.8091 22.7111 29.9478 22.7324C30.0163 22.743 30.0793 22.7509 30.1353 22.7549H30.2817C30.3368 22.7492 30.4067 22.7277 30.4849 22.6963C30.5642 22.6644 30.6558 22.6207 30.7544 22.5693C30.9515 22.4666 31.1802 22.3307 31.4048 22.1865C31.6296 22.0423 31.851 21.8891 32.0337 21.7529C32.2153 21.6176 32.3627 21.4961 32.4351 21.415C32.8508 20.9497 33.0238 20.491 33.0171 20.0557C33.0102 19.6213 32.8244 19.2172 32.5356 18.8584C31.9586 18.1418 30.9621 17.5946 30.105 17.3311L30.0894 17.3262L30.0747 17.3311ZM28.3052 16.5684C22.9575 15.0558 17.0037 14.8869 11.7036 16.6621L11.6694 16.6738V16.71C11.6696 16.7553 11.7042 16.7894 11.7349 16.8125C11.7688 16.8381 11.8162 16.8631 11.8726 16.8877C11.9862 16.9373 12.1474 16.9897 12.3394 17.043C12.7242 17.1498 13.2421 17.2626 13.7739 17.3672C14.8368 17.5762 15.9628 17.7534 16.2153 17.7822C19.6546 18.1727 24.0084 18.0456 27.355 17.1406C27.474 17.1089 27.7091 17.0622 27.9136 16.9873C28.0164 16.9497 28.1161 16.9031 28.1929 16.8457C28.2693 16.7885 28.3295 16.7148 28.3403 16.6221L28.2983 16.6162L28.3052 16.5684ZM20.5952 8.72949C16.5894 8.67379 12.5518 9.29372 9.91748 10.5039C9.08174 10.888 8.0273 11.4638 7.43115 12.1934C7.13227 12.5592 6.94465 12.9682 6.9624 13.4131C6.98019 13.8584 7.20305 14.3309 7.70361 14.8242C7.78026 14.8997 7.933 15.0148 8.12061 15.1436C8.30924 15.273 8.53701 15.4182 8.76709 15.5547C8.99712 15.6912 9.23028 15.8195 9.43018 15.9141C9.53012 15.9613 9.62283 16.0006 9.70264 16.0283C9.78118 16.0556 9.85169 16.0733 9.90674 16.0742C10.0302 16.0762 10.1997 16.0386 10.3892 15.9824C10.58 15.9259 10.7971 15.849 11.0181 15.7676C11.4627 15.6037 11.9213 15.4245 12.2319 15.3564C17.1928 14.2675 22.3295 14.2658 27.2954 15.2725C27.6382 15.3423 28.2221 15.5429 28.7817 15.7275C29.0605 15.8195 29.3324 15.9075 29.563 15.9717C29.7912 16.0352 29.9858 16.0771 30.106 16.0752C30.1652 16.0741 30.2417 16.055 30.3267 16.0244C30.4127 15.9934 30.512 15.9493 30.6196 15.8965C30.835 15.7908 31.0861 15.6476 31.3325 15.4951C31.5789 15.3427 31.8216 15.1804 32.021 15.0361C32.2189 14.8929 32.3779 14.7646 32.4536 14.6807L32.4673 14.666V14.6611C32.804 14.2834 32.9777 13.9172 33.0229 13.5654C33.0688 13.2087 32.9825 12.8723 32.811 12.5615C32.4694 11.9423 31.7862 11.4183 31.1118 11.0176C28.5859 9.51627 24.6006 8.78522 20.5952 8.72949Z" fill="#BBBBBB" stroke="#1F1F1E" stroke-width="0.1"/>
</svg>
