<svg width="40" height="40" viewBox="0 0 40 40" fill="none" xmlns="http://www.w3.org/2000/svg">
<path d="M20.4274 5.97461V18.6316L29.4964 9.81611L30.1684 10.4836L21.2839 19.4866H33.9454V20.3416H21.5404L21.3679 20.6836L30.1714 29.6416L29.8369 30.0106L29.2324 29.9296L20.4289 21.1966V34.0246H19.5739V21.1966L10.7704 29.9296L10.1659 30.0106L9.83144 29.6416L18.6349 20.6836L18.4624 20.3416H6.05444V19.4866H18.7159L9.83144 10.4836L10.4179 9.74261C10.6354 9.74261 12.4219 11.7601 12.7234 12.0511C13.3009 12.6091 13.9999 13.1401 14.5279 13.6681C15.8884 15.0256 17.5954 17.2576 19.0564 18.3766C19.2289 18.5086 19.2724 18.7066 19.5709 18.6316V5.97461H20.4259H20.4274Z" fill="#BBBBBB" stroke="#BBBBBB" stroke-width="0.3"/>
</svg>
