<svg width="40" height="40" viewBox="0 0 40 40" fill="none" xmlns="http://www.w3.org/2000/svg">
<g clip-path="url(#clip0_4963_8238)">
<path d="M25.6939 32.555C25.5229 32.453 23.4799 33.0485 22.9789 33.0935C17.6359 33.572 12.9664 31.322 10.3654 26.6075C10.1239 26.1695 9.66644 24.647 9.45344 24.494C8.97794 24.1505 7.62644 24.1445 6.87044 23.3885C5.31344 21.833 5.84294 18.6005 8.02544 17.7695C8.40344 17.6255 9.10994 17.6405 9.23444 17.5595C9.35894 17.4785 10.0099 15.3215 10.2349 14.8715C12.5194 10.307 17.5429 7.817 22.5709 8.1425C23.7409 4.964 28.7899 5.516 29.3059 8.807C29.3974 9.392 29.1169 10.5365 29.2174 10.778C29.3524 11.1005 30.0064 11.345 30.2629 11.6345C33.9634 15.8195 35.3164 21.2855 32.5699 26.4185C32.3284 26.87 31.2949 28.091 31.2364 28.316C31.1464 28.658 31.8229 29.7065 31.7839 30.536C31.6414 33.629 28.5214 34.9445 26.1049 33.188C25.8379 32.9945 25.7509 32.591 25.6924 32.5565L25.6939 32.555ZM25.1059 7.043C22.3114 7.6205 22.7899 12.6125 26.4934 11.831C29.5669 11.1815 28.7389 6.293 25.1059 7.043ZM22.3204 9.0785C16.7434 8.7245 11.8054 12.155 10.2199 17.501C13.4314 18.4295 13.6699 23.2655 10.4014 24.212C12.4264 30.296 18.7789 33.5375 24.9499 31.7555C24.3484 28.2845 27.1684 25.8095 30.3949 27.5855L30.6439 27.533C34.7254 22.61 33.3964 15.4775 28.6564 11.5715C26.3074 14.147 22.1119 12.677 22.3219 9.0785H22.3204ZM9.03194 18.3815C5.15144 18.9575 7.17344 25.058 10.5754 23.153C13.1194 21.728 11.6014 18.0005 9.03194 18.3815ZM27.5614 28.031C25.2049 28.5695 25.3084 33.047 28.4359 33.0275C31.9429 33.0065 31.5784 27.1115 27.5614 28.031Z" fill="#BBBBBB" stroke="#BBBBBB" stroke-width="0.2"/>
</g>
<defs>
<clipPath id="clip0_4963_8238">
<rect width="36" height="36" fill="white" transform="translate(2 2)"/>
</clipPath>
</defs>
</svg>
