<svg width="40" height="40" viewBox="0 0 40 40" fill="none" xmlns="http://www.w3.org/2000/svg">
<g clip-path="url(#clip0_4963_8252)">
<path d="M19.796 5.7326C37.9715 5.4536 38.9045 32.6456 21.6215 34.1921C1.60853 35.9816 0.57203 6.0266 19.796 5.7326ZM19.412 6.6896C9.54803 7.1516 3.64403 17.9501 8.46503 26.5811C13.058 34.8011 24.5615 35.5946 30.398 28.2416C37.4225 19.3931 30.6965 6.1601 19.4105 6.6896H19.412Z" fill="#BBBBBB"/>
<path d="M18.8391 13.4776C29.4936 12.0166 28.4976 28.6876 18.4656 26.4031C11.4711 24.8101 12.1431 14.3971 18.8391 13.4776ZM19.0281 14.4226C11.5596 15.5176 13.8261 27.6856 21.6831 25.3831C28.0671 23.5126 26.1966 13.3726 19.0281 14.4226Z" fill="#BBBBBB"/>
</g>
<defs>
<clipPath id="clip0_4963_8252">
<rect width="36" height="36" fill="white" transform="translate(2 2)"/>
</clipPath>
</defs>
</svg>
