<svg width="40" height="40" viewBox="0 0 40 40" fill="none" xmlns="http://www.w3.org/2000/svg">
<g clip-path="url(#clip0_4963_8229)">
<path d="M30.6275 11.0591C30.95 11.2871 32.8925 8.94556 33.311 8.65606L33.956 9.30106L31.541 11.9036C31.808 12.7466 32.387 13.3811 32.7515 14.2136C34.772 18.8261 34.025 24.8591 30.8045 28.7456C26.0855 34.4381 18.1895 35.5466 12.0275 31.4561L9.40697 34.0271L8.76197 33.3821L11.168 30.9686L9.23447 29.0351L6.81347 31.4336L6.16847 30.7886L8.71547 28.1981C7.46597 26.4191 6.54947 24.3806 6.21647 22.2176C5.43047 17.1116 7.38797 12.0086 11.45 8.84206C16.133 5.19256 23.411 4.92256 28.124 8.64706L30.878 6.26056L31.364 6.70756L29.1365 9.11506L30.629 11.0591H30.6275ZM19.6535 6.85456C9.19997 7.19506 3.28247 19.0301 9.40697 27.5426L27.461 9.46006C27.548 8.97406 25.265 7.90306 24.791 7.72156C23.234 7.12306 21.3245 6.79906 19.6535 6.85456ZM28.3055 9.99406L10.1375 28.1036C9.89297 28.5791 11.4425 29.6081 11.726 30.0581L29.987 11.9816L30.0005 11.6126L28.307 9.99556L28.3055 9.99406ZM30.992 12.7271L12.92 30.8846C23.171 37.3706 35.744 27.8891 32.462 16.1666C32.1095 14.9066 31.3985 13.9406 30.9905 12.7256L30.992 12.7271Z" fill="#BBBBBB" stroke="#BBBBBB" stroke-width="0.2"/>
</g>
<defs>
<clipPath id="clip0_4963_8229">
<rect width="36" height="36" fill="white" transform="translate(2 2)"/>
</clipPath>
</defs>
</svg>
